<?xml version="1.0" encoding="UTF-8" standalone="no"?>
<!DOCTYPE svg PUBLIC "-//W3C//DTD SVG 1.1//EN" "http://www.w3.org/Graphics/SVG/1.1/DTD/svg11.dtd">
<svg width="2031px" height="610px" version="1.1" xmlns="http://www.w3.org/2000/svg" xmlns:xlink="http://www.w3.org/1999/xlink" xml:space="preserve" xmlns:serif="http://www.serif.com/" style="fill-rule:evenodd;clip-rule:evenodd;stroke-linejoin:round;stroke-miterlimit:2;">
    <rect id="ArtBoard1" x="0" y="0" width="2030.82" height="609.52" style="fill:none;"/>
    <g>
        <path d="M756.32,206.756L803.564,206.756C802.864,186.368 798.927,168.83 791.753,154.144C784.579,139.457 774.78,127.276 762.357,117.6C749.934,107.924 735.498,100.84 719.05,96.348C702.602,91.855 684.754,89.609 665.507,89.609C648.359,89.609 631.648,91.769 615.375,96.088C599.102,100.408 584.579,106.974 571.806,115.786C559.032,124.598 548.796,135.828 541.097,149.478C533.398,163.128 529.549,179.283 529.549,197.944C529.549,214.877 532.961,228.959 539.785,240.19C546.609,251.42 555.708,260.578 567.081,267.662C578.455,274.746 591.316,280.448 605.664,284.768C620.012,289.087 634.623,292.888 649.496,296.171C664.369,299.454 678.98,302.651 693.328,305.761C707.676,308.871 720.537,312.931 731.911,317.942C743.284,322.953 752.383,329.432 759.207,337.38C766.031,345.328 769.444,355.695 769.444,368.481C769.444,381.958 766.644,393.016 761.045,401.656C755.445,410.295 748.096,417.12 738.997,422.13C729.899,427.141 719.662,430.683 708.289,432.757C696.915,434.83 685.629,435.867 674.43,435.867C660.432,435.867 646.784,434.139 633.486,430.683C620.187,427.227 608.551,421.871 598.577,414.614C588.604,407.357 580.555,398.113 574.43,386.883C568.306,375.652 565.244,362.261 565.244,346.71L518,346.71C518,369.172 522.112,388.61 530.336,405.025C538.56,421.439 549.759,434.916 563.932,445.456C578.105,455.996 594.553,463.858 613.276,469.041C631.998,474.225 651.858,476.816 672.856,476.816C690.003,476.816 707.239,474.829 724.562,470.855C741.885,466.881 757.545,460.488 771.543,451.676C785.542,442.864 797.003,431.461 805.927,417.465C814.85,403.47 819.312,386.623 819.312,366.926C819.312,348.611 815.9,333.406 809.076,321.311C802.252,309.216 793.153,299.195 781.78,291.247C770.406,283.299 757.545,276.992 743.197,272.327C728.849,267.662 714.238,263.602 699.365,260.146C684.492,256.69 669.881,253.494 655.533,250.557C641.185,247.619 628.324,243.904 616.95,239.412C605.577,234.92 596.478,229.131 589.654,222.047C582.829,214.963 579.417,205.719 579.417,194.316C579.417,182.221 581.78,172.113 586.504,163.992C591.228,155.871 597.528,149.392 605.402,144.554C613.276,139.716 622.287,136.26 632.436,134.187C642.584,132.114 652.908,131.077 663.407,131.077C689.304,131.077 710.563,137.038 727.186,148.96C743.809,160.882 753.521,180.147 756.32,206.756Z" style="fill:white;fill-rule:nonzero;stroke:white;stroke-width:1px;"/>
        <path d="M1122.64,315.759L1183.09,468.523L1127.97,468.523L1087.03,357.077L928.499,357.077L886.504,468.523L835.585,468.523L981.517,98.421L1036.63,98.421L1111.52,287.659L1061.17,287.659L1008.81,142.999L1007.76,142.999L944.247,315.609L1018,315.609L1018,315.759L1122.64,315.759Z" style="fill:white;stroke:white;stroke-width:1px;"/>
        <path d="M1219.31,98.421L1219.31,468.523L1266.56,468.523L1266.56,171.508L1267.61,171.508L1463.41,468.523L1518,468.523L1518,98.421L1470.76,98.421L1470.76,398.545L1469.71,398.545L1272.33,98.421L1219.31,98.421Z" style="fill:white;fill-rule:nonzero;stroke:white;stroke-width:1px;"/>
    </g>
    <path d="M1558.32,40.959C1558.32,49.238 1551.6,55.959 1543.32,55.959L487.497,55.959C479.218,55.959 472.497,49.238 472.497,40.959C472.497,32.68 479.218,25.959 487.497,25.959L1543.32,25.959C1551.6,25.959 1558.32,32.68 1558.32,40.959Z" style="fill:white;stroke:white;stroke-width:1px;stroke-linecap:round;stroke-miterlimit:1.5;"/>
    <circle cx="130.454" cy="156.307" r="69.095" style="fill:none;stroke:white;stroke-width:30px;stroke-linecap:round;stroke-miterlimit:1.5;"/>
    <path d="M478.853,156.307C478.853,164.585 472.132,171.307 463.853,171.307L214.548,171.307C206.27,171.307 199.548,164.585 199.548,156.307C199.548,148.028 206.27,141.307 214.548,141.307L463.853,141.307C472.132,141.307 478.853,148.028 478.853,156.307Z" style="fill:white;stroke:white;stroke-width:1px;stroke-linecap:round;stroke-miterlimit:1.5;"/>
    <circle cx="102.675" cy="415.008" r="69.095" style="fill:none;stroke:white;stroke-width:30px;stroke-linecap:round;stroke-miterlimit:1.5;"/>
    <path d="M478.853,415.008C478.853,423.286 472.132,430.008 463.853,430.008L186.77,430.008C178.491,430.008 171.77,423.286 171.77,415.008C171.77,406.729 178.491,400.008 186.77,400.008L463.853,400.008C472.132,400.008 478.853,406.729 478.853,415.008Z" style="fill:white;stroke:white;stroke-width:1px;stroke-linecap:round;stroke-miterlimit:1.5;"/>
    <path d="M478.853,283C478.853,274.721 472.132,268 463.853,268L169.232,268C160.953,268 154.232,274.721 154.232,283C154.232,291.279 160.953,298 169.232,298L463.853,298C472.132,298 478.853,291.279 478.853,283Z" style="fill:white;stroke:white;stroke-width:1px;stroke-linecap:round;stroke-miterlimit:1.5;"/>
    <circle cx="1906.63" cy="153.65" r="69.095" style="fill:none;stroke:white;stroke-width:30px;stroke-linecap:round;stroke-miterlimit:1.5;"/>
    <path d="M1558.23,153.65C1558.23,161.928 1564.95,168.65 1573.23,168.65L1822.54,168.65C1830.81,168.65 1837.54,161.928 1837.54,153.65C1837.54,145.371 1830.81,138.65 1822.54,138.65L1573.23,138.65C1564.95,138.65 1558.23,145.371 1558.23,153.65Z" style="fill:white;stroke:white;stroke-width:1px;stroke-linecap:round;stroke-miterlimit:1.5;"/>
    <circle cx="1934.41" cy="412.35" r="69.095" style="fill:none;stroke:white;stroke-width:30px;stroke-linecap:round;stroke-miterlimit:1.5;"/>
    <path d="M1558.23,412.35C1558.23,420.629 1564.95,427.35 1573.23,427.35L1850.31,427.35C1858.59,427.35 1865.31,420.629 1865.31,412.35C1865.31,404.072 1858.59,397.35 1850.31,397.35L1573.23,397.35C1564.95,397.35 1558.23,404.072 1558.23,412.35Z" style="fill:white;stroke:white;stroke-width:1px;stroke-linecap:round;stroke-miterlimit:1.5;"/>
    <path d="M1558.23,280.343C1558.23,272.064 1564.95,265.343 1573.23,265.343L1867.85,265.343C1876.13,265.343 1882.85,272.064 1882.85,280.343C1882.85,288.622 1876.13,295.343 1867.85,295.343L1573.23,295.343C1564.95,295.343 1558.23,288.622 1558.23,280.343Z" style="fill:white;stroke:white;stroke-width:1px;stroke-linecap:round;stroke-miterlimit:1.5;"/>
    <path d="M421.97,512.981C417.065,511.321 412.412,510.491 408.013,510.491C403.03,510.491 398.971,511.621 395.837,513.879C392.703,516.138 391.136,519.352 391.136,523.521C391.136,528.463 395.243,532.807 403.458,536.552C409.531,539.331 413.551,541.262 415.517,542.343C417.483,543.424 419.478,544.91 421.503,546.802C423.527,548.694 425.153,550.923 426.379,553.491C427.605,556.058 428.219,558.944 428.219,562.149C428.219,570.102 425.523,576.269 420.131,580.651C414.738,585.033 408.383,587.224 401.064,587.224C393.978,587.224 387.768,585.834 382.435,583.055L384.42,574.889C390.688,577.708 396.158,579.117 400.83,579.117C406.28,579.117 410.651,577.717 413.94,574.918C417.23,572.119 418.875,568.268 418.875,563.365C418.875,559.736 417.804,556.657 415.663,554.128C413.522,551.599 409.57,549.022 403.808,546.397C397.891,543.694 394.066,541.85 392.333,540.866C390.601,539.881 388.878,538.521 387.165,536.783C385.452,535.046 384.128,533.096 383.194,530.934C382.26,528.772 381.792,526.417 381.792,523.869C381.792,517.113 384.245,511.843 389.15,508.059C394.056,504.275 400.266,502.384 407.779,502.384C413.269,502.384 418.719,503.214 424.131,504.874L421.97,512.981Z" style="fill:white;fill-rule:nonzero;"/>
    <path d="M476.163,523.869C484.534,523.869 491.191,526.764 496.135,532.556C501.08,538.347 503.552,545.972 503.552,555.431C503.552,564.967 501.08,572.65 496.135,578.48C491.191,584.309 484.534,587.224 476.163,587.224C467.754,587.224 461.087,584.319 456.162,578.509C451.237,572.698 448.775,565.006 448.775,555.431C448.775,545.933 451.247,538.299 456.191,532.527C461.135,526.755 467.793,523.869 476.163,523.869ZM476.163,579.348C481.691,579.348 486.052,577.032 489.244,572.399C492.437,567.766 494.033,562.149 494.033,555.547C494.033,548.597 492.456,542.883 489.303,538.405C486.149,533.926 481.769,531.687 476.163,531.687C470.518,531.687 466.138,533.897 463.024,538.318C459.909,542.738 458.352,548.481 458.352,555.547C458.352,562.264 459.929,567.911 463.082,572.486C466.236,577.061 470.596,579.348 476.163,579.348Z" style="fill:white;fill-rule:nonzero;"/>
    <path d="M572.111,504.874L569.716,512.229C565.395,510.993 561.521,510.375 558.095,510.375C554.825,510.375 552.577,511.292 551.35,513.126C550.124,514.96 549.511,518.657 549.511,524.216L549.511,525.317L569.95,525.317L569.95,533.135L549.511,533.135L549.511,585.661L540.401,585.661L540.401,533.135L525.1,533.135L525.1,525.317L540.401,525.317L540.401,523.29C540.401,515.607 541.724,510.221 544.372,507.132C547.019,504.044 551.594,502.499 558.095,502.499C562.3,502.499 566.972,503.291 572.111,504.874Z" style="fill:white;fill-rule:nonzero;"/>
    <path d="M643.882,582.939C637.769,585.719 631.754,587.109 625.837,587.109C614.975,587.109 609.544,581.414 609.544,570.025L609.544,533.135L597.864,533.135L597.864,525.317L609.544,525.317L609.544,508.812L618.42,508.812L618.42,525.317L639.093,525.317L639.093,533.135L618.42,533.135L618.42,567.65C618.42,571.318 619.238,574.165 620.873,576.192C622.508,578.219 624.727,579.233 627.53,579.233C632.513,579.233 637.438,578.132 642.305,575.932L643.882,582.939Z" style="fill:white;fill-rule:nonzero;"/>
    <path d="M722.251,525.317L713.492,585.661L706.542,585.661L692.235,551.493L677.869,585.661L670.92,585.661L662.335,525.317L671.387,525.317C674.618,553.5 676.292,568.287 676.409,569.677L687.563,543.443L696.907,543.443L708.002,569.503L712.908,525.317L722.251,525.317Z" style="fill:white;fill-rule:nonzero;"/>
    <path d="M788.358,585.661L779.306,585.661C778.566,583.228 778.196,579.985 778.196,575.932C773.019,583.46 765.972,587.224 757.056,587.224C752.54,587.224 748.56,585.632 745.114,582.447C741.669,579.261 739.946,575.159 739.946,570.14C739.946,567.168 740.549,564.542 741.756,562.264C742.963,559.987 744.735,558.066 747.07,556.502C749.406,554.939 752.248,553.703 755.597,552.796C758.945,551.889 762.916,551.261 767.51,550.914L777.729,550.103L777.729,547.207C777.729,536.86 772.863,531.687 763.13,531.687C760.833,531.687 757.923,532.179 754.399,533.164C750.876,534.148 747.849,535.316 745.318,536.667L742.924,530.181C751.217,525.973 758.925,523.869 766.05,523.869C779.909,523.869 786.839,531.146 786.839,545.702L786.839,571.646C786.839,576.897 787.345,581.568 788.358,585.661ZM777.729,567.766L777.729,556.821C769.515,557.554 763.879,558.24 760.823,558.877C757.767,559.514 755.12,560.701 752.881,562.438C750.642,564.175 749.523,566.531 749.523,569.503C749.523,572.206 750.477,574.387 752.385,576.047C754.292,577.708 756.726,578.538 759.684,578.538C762.916,578.538 766.128,577.582 769.32,575.671C772.512,573.76 775.315,571.125 777.729,567.766Z" style="fill:white;fill-rule:nonzero;"/>
    <path d="M859.545,526.938L855.865,535.625C851.855,533.888 848.391,533.019 845.471,533.019C842.784,533.019 840.156,533.781 837.587,535.306C835.017,536.831 832.652,539.013 830.492,541.85C828.331,544.688 827.251,546.281 827.251,546.628L827.251,585.661L818.199,585.661L818.199,525.317L827.251,525.317L827.251,537.536C832.117,528.425 838.424,523.869 846.171,523.869C850.765,523.869 855.223,524.892 859.545,526.938Z" style="fill:white;fill-rule:nonzero;"/>
    <path d="M932.191,555.778L890.437,555.778C890.437,562.612 892.432,568.249 896.423,572.688C900.413,577.128 905.309,579.348 911.11,579.348C916.638,579.348 922.342,578.364 928.22,576.395L929.797,583.634C924.424,586.027 918.156,587.224 910.993,587.224C901.961,587.224 894.681,584.348 889.152,578.595C883.624,572.843 880.86,565.083 880.86,555.315C880.86,545.74 883.342,538.106 888.305,532.411C893.269,526.716 899.683,523.869 907.548,523.869C914.555,523.869 920.414,526.514 925.125,531.803C929.836,537.092 932.191,544.138 932.191,552.941L932.191,555.778ZM922.264,548.423C922.264,543.713 920.784,539.746 917.826,536.523C914.867,533.299 911.557,531.687 907.898,531.687C903.187,531.687 899.284,533.231 896.189,536.32C893.094,539.409 891.371,543.443 891.021,548.423L922.264,548.423Z" style="fill:white;fill-rule:nonzero;"/>
    <path d="M1026.68,503.947L1042.91,503.947C1053.7,503.947 1062.34,507.586 1068.84,514.864C1075.34,522.141 1078.6,532.131 1078.6,544.833C1078.6,557.805 1075.3,567.853 1068.7,574.976C1062.1,582.099 1053.64,585.661 1043.32,585.661L1026.68,585.661L1026.68,503.947ZM1036.26,577.379L1043.03,577.379C1050.86,577.379 1057.05,574.503 1061.6,568.75C1066.16,562.998 1068.43,555.025 1068.43,544.833C1068.43,534.718 1066.15,526.755 1061.57,520.944C1057,515.134 1050.82,512.229 1043.03,512.229L1036.26,512.229L1036.26,577.379Z" style="fill:white;fill-rule:nonzero;"/>
    <path d="M1147.5,555.778L1105.75,555.778C1105.75,562.612 1107.75,568.249 1111.74,572.688C1115.73,577.128 1120.62,579.348 1126.42,579.348C1131.95,579.348 1137.65,578.364 1143.53,576.395L1145.11,583.634C1139.74,586.027 1133.47,587.224 1126.31,587.224C1117.27,587.224 1109.99,584.348 1104.46,578.595C1098.94,572.843 1096.17,565.083 1096.17,555.315C1096.17,545.74 1098.65,538.106 1103.62,532.411C1108.58,526.716 1115,523.869 1122.86,523.869C1129.87,523.869 1135.73,526.514 1140.44,531.803C1145.15,537.092 1147.5,544.138 1147.5,552.941L1147.5,555.778ZM1137.58,548.423C1137.58,543.713 1136.1,539.746 1133.14,536.523C1130.18,533.299 1126.87,531.687 1123.21,531.687C1118.5,531.687 1114.6,533.231 1111.5,536.32C1108.41,539.409 1106.68,543.443 1106.33,548.423L1137.58,548.423Z" style="fill:white;fill-rule:nonzero;"/>
    <path d="M1220.21,525.317L1197.14,585.661L1188.85,585.661L1165.9,525.317L1175.83,525.317L1193.05,573.326L1210.28,525.317L1220.21,525.317Z" style="fill:white;fill-rule:nonzero;"/>
    <path d="M1291.05,555.778L1249.29,555.778C1249.29,562.612 1251.29,568.249 1255.28,572.688C1259.27,577.128 1264.16,579.348 1269.96,579.348C1275.49,579.348 1281.2,578.364 1287.08,576.395L1288.65,583.634C1283.28,586.027 1277.01,587.224 1269.85,587.224C1260.82,587.224 1253.54,584.348 1248.01,578.595C1242.48,572.843 1239.71,565.083 1239.71,555.315C1239.71,545.74 1242.2,538.106 1247.16,532.411C1252.12,526.716 1258.54,523.869 1266.4,523.869C1273.41,523.869 1279.27,526.514 1283.98,531.803C1288.69,537.092 1291.05,544.138 1291.05,552.941L1291.05,555.778ZM1281.12,548.423C1281.12,543.713 1279.64,539.746 1276.68,536.523C1273.72,533.299 1270.41,531.687 1266.75,531.687C1262.04,531.687 1258.14,533.231 1255.04,536.32C1251.95,539.409 1250.23,543.443 1249.88,548.423L1281.12,548.423Z" style="fill:white;fill-rule:nonzero;"/>
    <path d="M1356.57,585.661L1331.69,585.661L1331.69,511.765L1315.81,511.765L1315.81,503.947L1340.8,503.947L1340.8,577.843L1356.57,577.843L1356.57,585.661Z" style="fill:white;fill-rule:nonzero;"/>
    <path d="M1409.18,523.869C1417.56,523.869 1424.21,526.764 1429.16,532.556C1434.1,538.347 1436.57,545.972 1436.57,555.431C1436.57,564.967 1434.1,572.65 1429.16,578.48C1424.21,584.309 1417.56,587.224 1409.18,587.224C1400.78,587.224 1394.11,584.319 1389.18,578.509C1384.26,572.698 1381.8,565.006 1381.8,555.431C1381.8,545.933 1384.27,538.299 1389.21,532.527C1394.16,526.755 1400.81,523.869 1409.18,523.869ZM1409.18,579.348C1414.71,579.348 1419.07,577.032 1422.27,572.399C1425.46,567.766 1427.05,562.149 1427.05,555.547C1427.05,548.597 1425.48,542.883 1422.32,538.405C1419.17,533.926 1414.79,531.687 1409.18,531.687C1403.54,531.687 1399.16,533.897 1396.05,538.318C1392.93,542.738 1391.37,548.481 1391.37,555.547C1391.37,562.264 1392.95,567.911 1396.1,572.486C1399.26,577.061 1403.62,579.348 1409.18,579.348Z" style="fill:white;fill-rule:nonzero;"/>
    <path d="M1466.77,533.135C1468.79,530.355 1471.52,528.116 1474.97,526.417C1478.41,524.718 1482.05,523.869 1485.86,523.869C1492.87,523.869 1498.37,526.736 1502.36,532.469C1506.35,538.202 1508.34,545.663 1508.34,554.852C1508.34,564.118 1506.25,571.829 1502.07,577.987C1497.88,584.145 1492.25,587.224 1485.16,587.224C1481.38,587.224 1477.85,586.288 1474.56,584.416C1471.27,582.543 1468.67,580.063 1466.77,576.974L1466.77,609.52L1457.65,609.52L1457.65,525.317L1466.77,525.317L1466.77,533.135ZM1466.77,542.111L1466.77,567.187C1468.48,570.584 1470.79,573.422 1473.71,575.7C1476.63,577.978 1479.65,579.117 1482.77,579.117C1487.67,579.117 1491.57,576.839 1494.47,572.283C1497.38,567.727 1498.83,562.071 1498.83,555.315C1498.83,548.366 1497.44,542.69 1494.68,538.289C1491.91,533.888 1488.06,531.687 1483.12,531.687C1476.69,531.687 1471.24,535.162 1466.77,542.111Z" style="fill:white;fill-rule:nonzero;"/>
    <path d="M1578.13,555.778L1536.38,555.778C1536.38,562.612 1538.37,568.249 1542.36,572.688C1546.35,577.128 1551.25,579.348 1557.05,579.348C1562.58,579.348 1568.28,578.364 1574.16,576.395L1575.74,583.634C1570.36,586.027 1564.09,587.224 1556.93,587.224C1547.9,587.224 1540.62,584.348 1535.09,578.595C1529.56,572.843 1526.8,565.083 1526.8,555.315C1526.8,545.74 1529.28,538.106 1534.24,532.411C1539.21,526.716 1545.62,523.869 1553.49,523.869C1560.49,523.869 1566.35,526.514 1571.06,531.803C1575.77,537.092 1578.13,544.138 1578.13,552.941L1578.13,555.778ZM1568.2,548.423C1568.2,543.713 1566.72,539.746 1563.76,536.523C1560.8,533.299 1557.5,531.687 1553.84,531.687C1549.12,531.687 1545.22,533.231 1542.13,536.32C1539.03,539.409 1537.31,543.443 1536.96,548.423L1568.2,548.423Z" style="fill:white;fill-rule:nonzero;"/>
    <path d="M1649.02,526.938L1645.35,535.625C1641.34,533.888 1637.87,533.019 1634.95,533.019C1632.26,533.019 1629.64,533.781 1627.07,535.306C1624.5,536.831 1622.13,539.013 1619.97,541.85C1617.81,544.688 1616.73,546.281 1616.73,546.628L1616.73,585.661L1607.68,585.661L1607.68,525.317L1616.73,525.317L1616.73,537.536C1621.6,528.425 1627.9,523.869 1635.65,523.869C1640.25,523.869 1644.7,524.892 1649.02,526.938Z" style="fill:white;fill-rule:nonzero;"/>
</svg>
