<?xml version="1.0" encoding="UTF-8" standalone="no"?>
<!DOCTYPE svg PUBLIC "-//W3C//DTD SVG 1.1//EN" "http://www.w3.org/Graphics/SVG/1.1/DTD/svg11.dtd">
<svg width="2031px" height="610px" version="1.1" xmlns="http://www.w3.org/2000/svg" xmlns:xlink="http://www.w3.org/1999/xlink" xml:space="preserve" xmlns:serif="http://www.serif.com/" style="fill-rule:evenodd;clip-rule:evenodd;stroke-linejoin:round;stroke-miterlimit:2;">
    <rect id="ArtBoard1" x="0" y="0" width="2030.82" height="609.52" style="fill:none;"/>
    <g>
        <path d="M756.32,206.756L803.564,206.756C802.864,186.368 798.927,168.83 791.753,154.144C784.579,139.457 774.78,127.276 762.357,117.6C749.934,107.924 735.498,100.84 719.05,96.348C702.602,91.855 684.754,89.609 665.507,89.609C648.359,89.609 631.648,91.769 615.375,96.088C599.102,100.408 584.579,106.974 571.806,115.786C559.032,124.598 548.796,135.828 541.097,149.478C533.398,163.128 529.549,179.283 529.549,197.944C529.549,214.877 532.961,228.959 539.785,240.19C546.609,251.42 555.708,260.578 567.081,267.662C578.455,274.746 591.316,280.448 605.664,284.768C620.012,289.087 634.623,292.888 649.496,296.171C664.369,299.454 678.98,302.651 693.328,305.761C707.676,308.871 720.537,312.931 731.911,317.942C743.284,322.953 752.383,329.432 759.207,337.38C766.031,345.328 769.444,355.695 769.444,368.481C769.444,381.958 766.644,393.016 761.045,401.656C755.445,410.295 748.096,417.12 738.997,422.13C729.899,427.141 719.662,430.683 708.289,432.757C696.915,434.83 685.629,435.867 674.43,435.867C660.432,435.867 646.784,434.139 633.486,430.683C620.187,427.227 608.551,421.871 598.577,414.614C588.604,407.357 580.555,398.113 574.43,386.883C568.306,375.652 565.244,362.261 565.244,346.71L518,346.71C518,369.172 522.112,388.61 530.336,405.025C538.56,421.439 549.759,434.916 563.932,445.456C578.105,455.996 594.553,463.858 613.276,469.041C631.998,474.225 651.858,476.816 672.856,476.816C690.003,476.816 707.239,474.829 724.562,470.855C741.885,466.881 757.545,460.488 771.543,451.676C785.542,442.864 797.003,431.461 805.927,417.465C814.85,403.47 819.312,386.623 819.312,366.926C819.312,348.611 815.9,333.406 809.076,321.311C802.252,309.216 793.153,299.195 781.78,291.247C770.406,283.299 757.545,276.992 743.197,272.327C728.849,267.662 714.238,263.602 699.365,260.146C684.492,256.69 669.881,253.494 655.533,250.557C641.185,247.619 628.324,243.904 616.95,239.412C605.577,234.92 596.478,229.131 589.654,222.047C582.829,214.963 579.417,205.719 579.417,194.316C579.417,182.221 581.78,172.113 586.504,163.992C591.228,155.871 597.528,149.392 605.402,144.554C613.276,139.716 622.287,136.26 632.436,134.187C642.584,132.114 652.908,131.077 663.407,131.077C689.304,131.077 710.563,137.038 727.186,148.96C743.809,160.882 753.521,180.147 756.32,206.756Z" style="fill:white;fill-rule:nonzero;stroke:white;stroke-width:1px;"/>
        <path d="M1122.64,315.759L1183.09,468.523L1127.97,468.523L1087.03,357.077L928.499,357.077L886.504,468.523L835.585,468.523L981.517,98.421L1036.63,98.421L1111.52,287.659L1061.17,287.659L1008.81,142.999L1007.76,142.999L944.247,315.609L1018,315.609L1018,315.759L1122.64,315.759Z" style="fill:white;stroke:white;stroke-width:1px;"/>
        <path d="M1219.31,98.421L1219.31,468.523L1266.56,468.523L1266.56,171.508L1267.61,171.508L1463.41,468.523L1518,468.523L1518,98.421L1470.76,98.421L1470.76,398.545L1469.71,398.545L1272.33,98.421L1219.31,98.421Z" style="fill:white;fill-rule:nonzero;stroke:white;stroke-width:1px;"/>
    </g>
    <path d="M1558.32,40.959C1558.32,49.238 1551.6,55.959 1543.32,55.959L487.497,55.959C479.218,55.959 472.497,49.238 472.497,40.959C472.497,32.68 479.218,25.959 487.497,25.959L1543.32,25.959C1551.6,25.959 1558.32,32.68 1558.32,40.959Z" style="fill:white;stroke:white;stroke-width:1px;stroke-linecap:round;stroke-miterlimit:1.5;"/>
    <circle cx="130.454" cy="156.307" r="69.095" style="fill:none;stroke:white;stroke-width:30px;stroke-linecap:round;stroke-miterlimit:1.5;"/>
    <path d="M478.853,156.307C478.853,164.585 472.132,171.307 463.853,171.307L214.548,171.307C206.27,171.307 199.548,164.585 199.548,156.307C199.548,148.028 206.27,141.307 214.548,141.307L463.853,141.307C472.132,141.307 478.853,148.028 478.853,156.307Z" style="fill:white;stroke:white;stroke-width:1px;stroke-linecap:round;stroke-miterlimit:1.5;"/>
    <circle cx="102.675" cy="415.008" r="69.095" style="fill:none;stroke:white;stroke-width:30px;stroke-linecap:round;stroke-miterlimit:1.5;"/>
    <path d="M478.853,415.008C478.853,423.286 472.132,430.008 463.853,430.008L186.77,430.008C178.491,430.008 171.77,423.286 171.77,415.008C171.77,406.729 178.491,400.008 186.77,400.008L463.853,400.008C472.132,400.008 478.853,406.729 478.853,415.008Z" style="fill:white;stroke:white;stroke-width:1px;stroke-linecap:round;stroke-miterlimit:1.5;"/>
    <path d="M478.853,283C478.853,274.721 472.132,268 463.853,268L169.232,268C160.953,268 154.232,274.721 154.232,283C154.232,291.279 160.953,298 169.232,298L463.853,298C472.132,298 478.853,291.279 478.853,283Z" style="fill:white;stroke:white;stroke-width:1px;stroke-linecap:round;stroke-miterlimit:1.5;"/>
    <circle cx="1906.63" cy="153.65" r="69.095" style="fill:none;stroke:white;stroke-width:30px;stroke-linecap:round;stroke-miterlimit:1.5;"/>
    <path d="M1558.23,153.65C1558.23,161.928 1564.95,168.65 1573.23,168.65L1822.54,168.65C1830.81,168.65 1837.54,161.928 1837.54,153.65C1837.54,145.371 1830.81,138.65 1822.54,138.65L1573.23,138.65C1564.95,138.65 1558.23,145.371 1558.23,153.65Z" style="fill:white;stroke:white;stroke-width:1px;stroke-linecap:round;stroke-miterlimit:1.5;"/>
    <circle cx="1934.41" cy="412.35" r="69.095" style="fill:none;stroke:white;stroke-width:30px;stroke-linecap:round;stroke-miterlimit:1.5;"/>
    <path d="M1558.23,412.35C1558.23,420.629 1564.95,427.35 1573.23,427.35L1850.31,427.35C1858.59,427.35 1865.31,420.629 1865.31,412.35C1865.31,404.072 1858.59,397.35 1850.31,397.35L1573.23,397.35C1564.95,397.35 1558.23,404.072 1558.23,412.35Z" style="fill:white;stroke:white;stroke-width:1px;stroke-linecap:round;stroke-miterlimit:1.5;"/>
    <path d="M1558.23,280.343C1558.23,272.064 1564.95,265.343 1573.23,265.343L1867.85,265.343C1876.13,265.343 1882.85,272.064 1882.85,280.343C1882.85,288.622 1876.13,295.343 1867.85,295.343L1573.23,295.343C1564.95,295.343 1558.23,288.622 1558.23,280.343Z" style="fill:white;stroke:white;stroke-width:1px;stroke-linecap:round;stroke-miterlimit:1.5;"/>
    <path d="M549.705,504.919C545.834,503.258 542.163,502.428 538.691,502.428C534.759,502.428 531.556,503.558 529.083,505.816C526.61,508.075 525.373,511.289 525.373,515.459C525.373,520.4 528.614,524.744 535.097,528.489C539.889,531.268 543.061,533.199 544.613,534.28C546.164,535.361 547.739,536.847 549.336,538.739C550.934,540.631 552.217,542.86 553.184,545.428C554.152,547.995 554.636,550.881 554.636,554.086C554.636,562.039 552.508,568.207 548.253,572.589C543.998,576.97 538.983,579.161 533.207,579.161C527.616,579.161 522.716,577.772 518.507,574.992L520.074,566.826C525.02,569.645 529.336,571.054 533.023,571.054C537.324,571.054 540.773,569.654 543.369,566.855C545.965,564.056 547.263,560.205 547.263,555.302C547.263,551.673 546.418,548.594 544.728,546.065C543.038,543.536 539.92,540.959 535.373,538.334C530.704,535.631 527.685,533.788 526.318,532.803C524.951,531.819 523.591,530.458 522.24,528.72C520.888,526.983 519.843,525.033 519.106,522.871C518.369,520.709 518,518.354 518,515.806C518,509.05 519.935,503.78 523.806,499.996C527.677,496.213 532.578,494.321 538.507,494.321C542.839,494.321 547.14,495.151 551.41,496.811L549.705,504.919Z" style="fill:white;fill-rule:nonzero;"/>
    <path d="M592.47,515.806C599.075,515.806 604.329,518.702 608.23,524.493C612.132,530.284 614.083,537.909 614.083,547.368C614.083,556.904 612.132,564.587 608.23,570.417C604.329,576.247 599.075,579.161 592.47,579.161C585.834,579.161 580.573,576.256 576.687,570.446C572.8,564.635 570.857,556.943 570.857,547.368C570.857,537.87 572.808,530.236 576.71,524.464C580.611,518.692 585.865,515.806 592.47,515.806ZM592.47,571.285C596.833,571.285 600.273,568.969 602.793,564.336C605.312,559.703 606.571,554.086 606.571,547.484C606.571,540.534 605.327,534.82 602.839,530.342C600.35,525.863 596.894,523.624 592.47,523.624C588.015,523.624 584.559,525.834 582.101,530.255C579.644,534.676 578.415,540.419 578.415,547.484C578.415,554.202 579.659,559.848 582.147,564.423C584.636,568.998 588.077,571.285 592.47,571.285Z" style="fill:white;fill-rule:nonzero;"/>
    <path d="M668.184,496.811L666.295,504.166C662.885,502.93 659.828,502.313 657.124,502.313C654.544,502.313 652.77,503.23 651.802,505.063C650.834,506.897 650.35,510.594 650.35,516.154L650.35,517.254L666.479,517.254L666.479,525.072L650.35,525.072L650.35,577.598L643.161,577.598L643.161,525.072L631.088,525.072L631.088,517.254L643.161,517.254L643.161,515.227C643.161,507.544 644.206,502.158 646.295,499.07C648.384,495.981 651.994,494.437 657.124,494.437C660.442,494.437 664.129,495.228 668.184,496.811Z" style="fill:white;fill-rule:nonzero;"/>
    <path d="M724.82,574.876C719.997,577.656 715.25,579.046 710.581,579.046C702.009,579.046 697.724,573.351 697.724,561.962L697.724,525.072L688.507,525.072L688.507,517.254L697.724,517.254L697.724,500.749L704.728,500.749L704.728,517.254L721.041,517.254L721.041,525.072L704.728,525.072L704.728,559.587C704.728,563.255 705.373,566.102 706.664,568.129C707.954,570.156 709.705,571.17 711.917,571.17C715.849,571.17 719.736,570.069 723.576,567.869L724.82,574.876Z" style="fill:white;fill-rule:nonzero;"/>
    <path d="M786.664,517.254L779.751,577.598L774.267,577.598L762.977,543.43L751.641,577.598L746.157,577.598L739.382,517.254L746.525,517.254C749.075,545.438 750.396,560.224 750.488,561.614L759.29,535.38L766.664,535.38L775.419,561.44L779.29,517.254L786.664,517.254Z" style="fill:white;fill-rule:nonzero;"/>
    <path d="M838.829,577.598L831.687,577.598C831.103,575.166 830.811,571.923 830.811,567.869C826.725,575.397 821.164,579.161 814.129,579.161C810.565,579.161 807.424,577.569 804.705,574.384C801.986,571.199 800.627,567.097 800.627,562.078C800.627,559.105 801.103,556.479 802.055,554.202C803.008,551.924 804.406,550.003 806.249,548.439C808.092,546.876 810.335,545.64 812.977,544.733C815.619,543.826 818.753,543.198 822.378,542.851L830.442,542.04L830.442,539.144C830.442,528.798 826.602,523.624 818.922,523.624C817.109,523.624 814.813,524.116 812.032,525.101C809.252,526.085 806.863,527.253 804.866,528.605L802.977,522.118C809.521,517.91 815.604,515.806 821.226,515.806C832.163,515.806 837.631,523.084 837.631,537.639L837.631,563.583C837.631,568.834 838.031,573.505 838.829,577.598ZM830.442,559.703L830.442,548.758C823.96,549.491 819.513,550.177 817.101,550.814C814.69,551.451 812.601,552.638 810.834,554.375C809.068,556.113 808.184,558.468 808.184,561.44C808.184,564.143 808.937,566.324 810.442,567.985C811.948,569.645 813.868,570.475 816.203,570.475C818.753,570.475 821.287,569.519 823.806,567.608C826.326,565.697 828.538,563.062 830.442,559.703Z" style="fill:white;fill-rule:nonzero;"/>
    <path d="M895.005,518.875L892.101,527.562C888.937,525.825 886.203,524.956 883.899,524.956C881.779,524.956 879.705,525.719 877.677,527.244C875.65,528.769 873.783,530.95 872.078,533.788C870.373,536.625 869.521,538.218 869.521,538.565L869.521,577.598L862.378,577.598L862.378,517.254L869.521,517.254L869.521,529.473C873.361,520.362 878.338,515.806 884.452,515.806C888.077,515.806 891.594,516.829 895.005,518.875Z" style="fill:white;fill-rule:nonzero;"/>
    <path d="M952.332,547.715L919.382,547.715C919.382,554.549 920.957,560.186 924.106,564.626C927.255,569.066 931.118,571.285 935.696,571.285C940.058,571.285 944.559,570.301 949.198,568.332L950.442,575.571C946.203,577.965 941.257,579.161 935.604,579.161C928.476,579.161 922.731,576.285 918.369,570.533C914.006,564.78 911.825,557.02 911.825,547.252C911.825,537.677 913.783,530.043 917.7,524.348C921.618,518.653 926.679,515.806 932.885,515.806C938.415,515.806 943.038,518.451 946.756,523.74C950.473,529.029 952.332,536.075 952.332,544.878L952.332,547.715ZM944.498,540.361C944.498,535.65 943.33,531.684 940.995,528.46C938.661,525.236 936.049,523.624 933.161,523.624C929.444,523.624 926.364,525.168 923.922,528.257C921.479,531.346 920.12,535.38 919.843,540.361L944.498,540.361Z" style="fill:white;fill-rule:nonzero;"/>
    <path d="M1026.89,495.884L1039.7,495.884C1048.21,495.884 1055.04,499.523 1060.17,506.801C1065.3,514.078 1067.86,524.068 1067.86,536.77C1067.86,549.742 1065.26,559.79 1060.05,566.913C1054.84,574.036 1048.17,577.598 1040.03,577.598L1026.89,577.598L1026.89,495.884ZM1034.45,569.316L1039.8,569.316C1045.97,569.316 1050.86,566.44 1054.45,560.688C1058.05,554.935 1059.84,546.963 1059.84,536.77C1059.84,526.655 1058.04,518.692 1054.43,512.881C1050.82,507.071 1045.94,504.166 1039.8,504.166L1034.45,504.166L1034.45,569.316Z" style="fill:white;fill-rule:nonzero;"/>
    <path d="M1122.24,547.715L1089.29,547.715C1089.29,554.549 1090.87,560.186 1094.01,564.626C1097.16,569.066 1101.03,571.285 1105.6,571.285C1109.97,571.285 1114.47,570.301 1119.11,568.332L1120.35,575.571C1116.11,577.965 1111.16,579.161 1105.51,579.161C1098.38,579.161 1092.64,576.285 1088.28,570.533C1083.91,564.78 1081.73,557.02 1081.73,547.252C1081.73,537.677 1083.69,530.043 1087.61,524.348C1091.53,518.653 1096.59,515.806 1102.79,515.806C1108.32,515.806 1112.95,518.451 1116.66,523.74C1120.38,529.029 1122.24,536.075 1122.24,544.878L1122.24,547.715ZM1114.41,540.361C1114.41,535.65 1113.24,531.684 1110.9,528.46C1108.57,525.236 1105.96,523.624 1103.07,523.624C1099.35,523.624 1096.27,525.168 1093.83,528.257C1091.39,531.346 1090.03,535.38 1089.75,540.361L1114.41,540.361Z" style="fill:white;fill-rule:nonzero;"/>
    <path d="M1179.61,517.254L1161.41,577.598L1154.87,577.598L1136.76,517.254L1144.59,517.254L1158.18,565.263L1171.78,517.254L1179.61,517.254Z" style="fill:white;fill-rule:nonzero;"/>
    <path d="M1235.51,547.715L1202.56,547.715C1202.56,554.549 1204.14,560.186 1207.29,564.626C1210.43,569.066 1214.3,571.285 1218.88,571.285C1223.24,571.285 1227.74,570.301 1232.38,568.332L1233.62,575.571C1229.38,577.965 1224.44,579.161 1218.78,579.161C1211.66,579.161 1205.91,576.285 1201.55,570.533C1197.19,564.78 1195.01,557.02 1195.01,547.252C1195.01,537.677 1196.96,530.043 1200.88,524.348C1204.8,518.653 1209.86,515.806 1216.07,515.806C1221.59,515.806 1226.22,518.451 1229.93,523.74C1233.65,529.029 1235.51,536.075 1235.51,544.878L1235.51,547.715ZM1227.68,540.361C1227.68,535.65 1226.51,531.684 1224.17,528.46C1221.84,525.236 1219.23,523.624 1216.34,523.624C1212.62,523.624 1209.54,525.168 1207.1,528.257C1204.66,531.346 1203.3,535.38 1203.02,540.361L1227.68,540.361Z" style="fill:white;fill-rule:nonzero;"/>
    <path d="M1287.22,577.598L1267.59,577.598L1267.59,503.702L1255.05,503.702L1255.05,495.884L1274.77,495.884L1274.77,569.78L1287.22,569.78L1287.22,577.598Z" style="fill:white;fill-rule:nonzero;"/>
    <path d="M1328.74,515.806C1335.34,515.806 1340.6,518.702 1344.5,524.493C1348.4,530.284 1350.35,537.909 1350.35,547.368C1350.35,556.904 1348.4,564.587 1344.5,570.417C1340.6,576.247 1335.34,579.161 1328.74,579.161C1322.1,579.161 1316.84,576.256 1312.95,570.446C1309.07,564.635 1307.12,556.943 1307.12,547.368C1307.12,537.87 1309.08,530.236 1312.98,524.464C1316.88,518.692 1322.13,515.806 1328.74,515.806ZM1328.74,571.285C1333.1,571.285 1336.54,568.969 1339.06,564.336C1341.58,559.703 1342.84,554.086 1342.84,547.484C1342.84,540.534 1341.59,534.82 1339.11,530.342C1336.62,525.863 1333.16,523.624 1328.74,523.624C1324.28,523.624 1320.83,525.834 1318.37,530.255C1315.91,534.676 1314.68,540.419 1314.68,547.484C1314.68,554.202 1315.93,559.848 1318.41,564.423C1320.9,568.998 1324.34,571.285 1328.74,571.285Z" style="fill:white;fill-rule:nonzero;"/>
    <path d="M1374.17,525.072C1375.77,522.292 1377.93,520.053 1380.65,518.354C1383.37,516.655 1386.23,515.806 1389.24,515.806C1394.77,515.806 1399.11,518.673 1402.26,524.406C1405.41,530.139 1406.99,537.6 1406.99,546.789C1406.99,556.055 1405.34,563.767 1402.03,569.925C1398.73,576.083 1394.28,579.161 1388.69,579.161C1385.71,579.161 1382.92,578.225 1380.33,576.353C1377.73,574.48 1375.68,572 1374.17,568.911L1374.17,601.458L1366.99,601.458L1366.99,517.254L1374.17,517.254L1374.17,525.072ZM1374.17,534.048L1374.17,559.124C1375.53,562.522 1377.36,565.359 1379.66,567.637C1381.96,569.915 1384.34,571.054 1386.8,571.054C1390.67,571.054 1393.75,568.776 1396.04,564.22C1398.33,559.665 1399.48,554.008 1399.48,547.252C1399.48,540.303 1398.38,534.627 1396.2,530.226C1394.02,525.825 1390.98,523.624 1387.08,523.624C1382.01,523.624 1377.71,527.099 1374.17,534.048Z" style="fill:white;fill-rule:nonzero;"/>
    <path d="M1462.06,547.715L1429.11,547.715C1429.11,554.549 1430.68,560.186 1433.83,564.626C1436.98,569.066 1440.84,571.285 1445.42,571.285C1449.78,571.285 1454.28,570.301 1458.92,568.332L1460.17,575.571C1455.93,577.965 1450.98,579.161 1445.33,579.161C1438.2,579.161 1432.45,576.285 1428.09,570.533C1423.73,564.78 1421.55,557.02 1421.55,547.252C1421.55,537.677 1423.51,530.043 1427.42,524.348C1431.34,518.653 1436.4,515.806 1442.61,515.806C1448.14,515.806 1452.76,518.451 1456.48,523.74C1460.2,529.029 1462.06,536.075 1462.06,544.878L1462.06,547.715ZM1454.22,540.361C1454.22,535.65 1453.05,531.684 1450.72,528.46C1448.38,525.236 1445.77,523.624 1442.88,523.624C1439.17,523.624 1436.09,525.168 1433.64,528.257C1431.2,531.346 1429.84,535.38 1429.57,540.361L1454.22,540.361Z" style="fill:white;fill-rule:nonzero;"/>
    <path d="M1518,518.875L1515.1,527.562C1511.93,525.825 1509.2,524.956 1506.89,524.956C1504.77,524.956 1502.7,525.719 1500.67,527.244C1498.64,528.769 1496.78,530.95 1495.07,533.788C1493.37,536.625 1492.52,538.218 1492.52,538.565L1492.52,577.598L1485.37,577.598L1485.37,517.254L1492.52,517.254L1492.52,529.473C1496.36,520.362 1501.33,515.806 1507.45,515.806C1511.07,515.806 1514.59,516.829 1518,518.875Z" style="fill:white;fill-rule:nonzero;"/>
</svg>
