<?xml version="1.0" encoding="UTF-8" standalone="no"?><!DOCTYPE svg PUBLIC "-//W3C//DTD SVG 1.1//EN" "http://www.w3.org/Graphics/SVG/1.1/DTD/svg11.dtd"><svg width="100%" height="100%" viewBox="0 0 8462 2540" version="1.1" xmlns="http://www.w3.org/2000/svg" xmlns:xlink="http://www.w3.org/1999/xlink" xml:space="preserve" xmlns:serif="http://www.serif.com/" style="fill-rule:evenodd;clip-rule:evenodd;stroke-linecap:round;stroke-linejoin:round;stroke-miterlimit:1.5;"><rect id="ArtBoard1" x="0" y="0" width="8461.74" height="2539.67" style="fill:none;"/><g><path d="M3151.33,861.483l196.851,0c-2.917,-84.951 -19.321,-158.024 -49.213,-219.218c-29.892,-61.194 -70.72,-111.95 -122.485,-152.266c-51.764,-40.316 -111.913,-69.833 -180.446,-88.551c-68.533,-18.718 -142.899,-28.077 -223.097,-28.077c-71.449,-0 -141.076,8.999 -208.88,26.997c-67.804,17.998 -128.317,45.356 -181.54,82.072c-53.222,36.717 -95.873,83.512 -127.953,140.386c-32.079,56.875 -48.119,124.188 -48.119,201.941c0,70.553 14.217,129.227 42.651,176.023c28.434,46.795 66.346,84.952 113.736,114.469c47.39,29.517 100.977,53.275 160.761,71.273c59.784,17.998 120.662,33.837 182.634,47.515c61.971,13.679 122.849,26.998 182.633,39.956c59.784,12.959 113.371,29.878 160.761,50.755c47.39,20.878 85.302,47.876 113.736,80.993c28.434,33.116 42.651,76.312 42.651,129.587c-0,56.155 -11.665,102.23 -34.996,138.227c-23.33,35.996 -53.951,64.433 -91.863,85.311c-37.912,20.878 -80.563,35.637 -127.953,44.276c-47.39,8.639 -94.415,12.959 -141.076,12.959c-58.326,-0 -115.194,-7.199 -170.604,-21.598c-55.41,-14.399 -103.893,-36.716 -145.45,-66.954c-41.558,-30.237 -75.095,-68.753 -100.613,-115.548c-25.517,-46.796 -38.276,-102.59 -38.276,-167.384l-196.851,-0c0,93.591 17.134,174.583 51.4,242.976c34.267,68.394 80.928,124.548 139.983,168.464c59.055,43.916 127.588,76.673 205.599,98.271c78.011,21.597 160.761,32.396 248.25,32.396c71.45,0 143.264,-8.279 215.442,-24.837c72.178,-16.559 137.431,-43.196 195.757,-79.912c58.326,-36.717 106.08,-84.232 143.263,-142.547c37.183,-58.314 55.774,-128.507 55.774,-210.579c0,-76.313 -14.217,-139.667 -42.651,-190.062c-28.433,-50.395 -66.345,-92.151 -113.735,-125.268c-47.39,-33.117 -100.977,-59.394 -160.761,-78.832c-59.785,-19.438 -120.662,-36.357 -182.634,-50.755c-61.971,-14.399 -122.849,-27.717 -182.633,-39.956c-59.784,-12.239 -113.372,-27.718 -160.761,-46.436c-47.39,-18.718 -85.302,-42.836 -113.736,-72.353c-28.434,-29.517 -42.651,-68.033 -42.651,-115.549c-0,-50.395 9.842,-92.511 29.527,-126.347c19.685,-33.837 45.932,-60.834 78.741,-80.993c32.808,-20.158 70.355,-34.556 112.642,-43.195c42.286,-8.639 85.302,-12.959 129.046,-12.959c107.903,-0 196.486,24.838 265.748,74.513c69.262,49.675 109.726,129.947 121.391,240.816Z" style="fill-rule:nonzero;"/><path d="M4677.67,1315.66l251.882,636.517l-229.658,-0l-170.604,-464.355l-660.542,-0l-174.979,464.355l-212.161,-0l608.049,-1542.09l229.659,0l312.022,788.49l-209.812,0l-218.133,-602.748l-4.374,0l-264.655,719.21l307.306,0l-0,0.622l436,0Z"/><path d="M5080.47,410.087l0,1542.09l196.85,-0l0,-1237.56l4.375,-0l815.835,1237.56l227.472,-0l-0,-1542.09l-196.85,0l-0,1250.52l-4.375,-0l-822.397,-1250.52l-220.91,0Z" style="fill-rule:nonzero;"/></g><rect x="2158.33" y="2.221" width="4166.67" height="208.333"/><circle cx="543.557" cy="651.278" r="287.895" style="fill:#fff;stroke:#000;stroke-width:125px;"/><path d="M1995.22,651.278c-0,34.495 -28.006,62.5 -62.5,62.5l-1038.77,0c-34.495,0 -62.5,-28.005 -62.5,-62.5c-0,-34.495 28.005,-62.5 62.5,-62.5l1038.77,0c34.494,0 62.5,28.005 62.5,62.5Z"/><circle cx="427.814" cy="1729.2" r="287.895" style="fill:#fff;stroke:#000;stroke-width:125px;"/><path d="M1995.22,1729.2c-0,34.495 -28.006,62.5 -62.5,62.5l-1154.51,0c-34.495,0 -62.5,-28.005 -62.5,-62.5c-0,-34.494 28.005,-62.5 62.5,-62.5l1154.51,0c34.494,0 62.5,28.006 62.5,62.5Z"/><path d="M1995.22,1179.17c-0,-34.495 -28.006,-62.5 -62.5,-62.5l-1227.59,-0c-34.495,-0 -62.5,28.005 -62.5,62.5c0,34.494 28.005,62.5 62.5,62.5l1227.59,-0c34.494,-0 62.5,-28.006 62.5,-62.5Z"/><circle cx="7944.29" cy="640.207" r="287.895" style="fill:#fff;stroke:#000;stroke-width:125px;"/><path d="M6492.62,640.207c-0,34.494 28.005,62.5 62.5,62.5l1038.77,-0c34.494,-0 62.5,-28.006 62.5,-62.5c-0,-34.495 -28.006,-62.5 -62.5,-62.5l-1038.77,-0c-34.495,-0 -62.5,28.005 -62.5,62.5Z"/><circle cx="8060.03" cy="1718.13" r="287.895" style="fill:#fff;stroke:#000;stroke-width:125px;"/><path d="M6492.62,1718.13c-0,34.494 28.005,62.5 62.5,62.5l1154.51,-0c34.494,-0 62.5,-28.006 62.5,-62.5c-0,-34.495 -28.006,-62.5 -62.5,-62.5l-1154.51,-0c-34.495,-0 -62.5,28.005 -62.5,62.5Z"/><path d="M6492.62,1168.1c-0,-34.495 28.005,-62.5 62.5,-62.5l1227.59,0c34.495,0 62.5,28.005 62.5,62.5c0,34.495 -28.005,62.5 -62.5,62.5l-1227.59,0c-34.495,0 -62.5,-28.005 -62.5,-62.5Z"/><g transform="matrix(0.795744,0,0,1,-109.493,0)"><g transform="matrix(494.18,0,0,494.18,8133.18,2406.66)"></g><text x="2795.17px" y="2406.66px" style="font-family:'AndaleMono', 'Andale Mono', monospace;font-size:494.18px;">Software Developer</text></g></svg>